<svg width="25" height="25" viewBox="0 0 25 25" fill="none" xmlns="http://www.w3.org/2000/svg">
<path d="M11.8438 0C12.2752 0 12.625 0.349778 12.625 0.78125C12.625 1.21272 12.9748 1.5625 13.4062 1.5625C13.8377 1.5625 14.1875 1.91228 14.1875 2.34375V3.125C14.1875 3.55647 13.8377 3.90625 13.4062 3.90625H5.59375C5.16228 3.90625 4.8125 3.55647 4.8125 3.125V2.34375C4.8125 1.91228 5.16228 1.5625 5.59375 1.5625C6.02522 1.5625 6.375 1.21272 6.375 0.78125C6.375 0.349778 6.72478 0 7.15625 0H11.8438Z" fill="#8C8C8C"/>
<path d="M1.6875 3.90625C1.6875 3.47478 2.03728 3.125 2.46875 3.125H3.25C3.68147 3.125 4.03125 2.77522 4.03125 2.34375C4.03125 1.91228 3.68147 1.5625 3.25 1.5625H2.46875C1.17433 1.5625 0.125 2.61183 0.125 3.90625V22.6562C0.125 23.9506 1.17433 25 2.46875 25H16.5312C17.8256 25 18.875 23.9506 18.875 22.6562V3.90625C18.875 2.61183 17.8256 1.5625 16.5312 1.5625H15.75C15.3186 1.5625 14.9688 1.91228 14.9688 2.34375C14.9688 2.77522 15.3186 3.125 15.75 3.125H16.5312C16.9627 3.125 17.3125 3.47478 17.3125 3.90625V22.6562C17.3125 23.0877 16.9627 23.4375 16.5312 23.4375H2.46875C2.03728 23.4375 1.6875 23.0877 1.6875 22.6562V3.90625Z" fill="#8C8C8C"/>
<path d="M13.9588 12.2712C14.2638 11.9661 14.2638 11.4714 13.9588 11.1663C13.6536 10.8612 13.1589 10.8612 12.8538 11.1663L8.71875 15.3014L6.92743 13.5101C6.62233 13.205 6.12768 13.205 5.82258 13.5101C5.51747 13.8152 5.51747 14.3098 5.82258 14.6149L8.16633 16.9588C8.31283 17.1052 8.51155 17.1875 8.71875 17.1875C8.92596 17.1875 9.12468 17.1052 9.27118 16.9588L13.9588 12.2712Z" fill="#8C8C8C"/>
</svg>
