<svg width="19" height="21" viewBox="0 0 19 21" fill="none" xmlns="http://www.w3.org/2000/svg">
<path d="M2.20833 20.9167C1.63542 20.9167 1.14479 20.7128 0.736458 20.3052C0.328819 19.8969 0.125 19.4062 0.125 18.8333V4.24999C0.125 3.67708 0.328819 3.1868 0.736458 2.77916C1.14479 2.37083 1.63542 2.16666 2.20833 2.16666H3.25V0.0833282H5.33333V2.16666H13.6667V0.0833282H15.75V2.16666H16.7917C17.3646 2.16666 17.8552 2.37083 18.2635 2.77916C18.6712 3.1868 18.875 3.67708 18.875 4.24999V18.8333C18.875 19.4062 18.6712 19.8969 18.2635 20.3052C17.8552 20.7128 17.3646 20.9167 16.7917 20.9167H2.20833ZM2.20833 18.8333H16.7917V8.41666H2.20833V18.8333ZM2.20833 6.33333H16.7917V4.24999H2.20833V6.33333ZM9.5 12.5833C9.20486 12.5833 8.95764 12.4833 8.75833 12.2833C8.55833 12.084 8.45833 11.8368 8.45833 11.5417C8.45833 11.2465 8.55833 10.999 8.75833 10.799C8.95764 10.5996 9.20486 10.5 9.5 10.5C9.79514 10.5 10.0427 10.5996 10.2427 10.799C10.442 10.999 10.5417 11.2465 10.5417 11.5417C10.5417 11.8368 10.442 12.084 10.2427 12.2833C10.0427 12.4833 9.79514 12.5833 9.5 12.5833ZM5.33333 12.5833C5.03819 12.5833 4.79063 12.4833 4.59062 12.2833C4.39132 12.084 4.29167 11.8368 4.29167 11.5417C4.29167 11.2465 4.39132 10.999 4.59062 10.799C4.79063 10.5996 5.03819 10.5 5.33333 10.5C5.62847 10.5 5.87604 10.5996 6.07604 10.799C6.27535 10.999 6.375 11.2465 6.375 11.5417C6.375 11.8368 6.27535 12.084 6.07604 12.2833C5.87604 12.4833 5.62847 12.5833 5.33333 12.5833ZM13.6667 12.5833C13.3715 12.5833 13.1243 12.4833 12.925 12.2833C12.725 12.084 12.625 11.8368 12.625 11.5417C12.625 11.2465 12.725 10.999 12.925 10.799C13.1243 10.5996 13.3715 10.5 13.6667 10.5C13.9618 10.5 14.209 10.5996 14.4083 10.799C14.6083 10.999 14.7083 11.2465 14.7083 11.5417C14.7083 11.8368 14.6083 12.084 14.4083 12.2833C14.209 12.4833 13.9618 12.5833 13.6667 12.5833ZM9.5 16.75C9.20486 16.75 8.95764 16.65 8.75833 16.45C8.55833 16.2507 8.45833 16.0035 8.45833 15.7083C8.45833 15.4132 8.55833 15.166 8.75833 14.9667C8.95764 14.7667 9.20486 14.6667 9.5 14.6667C9.79514 14.6667 10.0427 14.7667 10.2427 14.9667C10.442 15.166 10.5417 15.4132 10.5417 15.7083C10.5417 16.0035 10.442 16.2507 10.2427 16.45C10.0427 16.65 9.79514 16.75 9.5 16.75ZM5.33333 16.75C5.03819 16.75 4.79063 16.65 4.59062 16.45C4.39132 16.2507 4.29167 16.0035 4.29167 15.7083C4.29167 15.4132 4.39132 15.166 4.59062 14.9667C4.79063 14.7667 5.03819 14.6667 5.33333 14.6667C5.62847 14.6667 5.87604 14.7667 6.07604 14.9667C6.27535 15.166 6.375 15.4132 6.375 15.7083C6.375 16.0035 6.27535 16.2507 6.07604 16.45C5.87604 16.65 5.62847 16.75 5.33333 16.75ZM13.6667 16.75C13.3715 16.75 13.1243 16.65 12.925 16.45C12.725 16.2507 12.625 16.0035 12.625 15.7083C12.625 15.4132 12.725 15.166 12.925 14.9667C13.1243 14.7667 13.3715 14.6667 13.6667 14.6667C13.9618 14.6667 14.209 14.7667 14.4083 14.9667C14.6083 15.166 14.7083 15.4132 14.7083 15.7083C14.7083 16.0035 14.6083 16.2507 14.4083 16.45C14.209 16.65 13.9618 16.75 13.6667 16.75Z" fill="#8C8C8C"/>
</svg>
