<svg width="25" height="25" viewBox="0 0 25 25" fill="none" xmlns="http://www.w3.org/2000/svg">
<path d="M12.5 14.5833C12.9104 14.5833 13.3167 14.5025 13.6959 14.3455C14.075 14.1884 14.4195 13.9582 14.7097 13.668C14.9999 13.3779 15.2301 13.0334 15.3871 12.6542C15.5442 12.2751 15.625 11.8687 15.625 11.4583M12.5 14.5833C11.6712 14.5833 10.8763 14.2541 10.2903 13.668C9.70424 13.082 9.375 12.2871 9.375 11.4583M12.5 14.5833V17.7083M15.625 11.4583C15.625 11.0479 15.5442 10.6416 15.3871 10.2624C15.2301 9.8833 14.9999 9.5388 14.7097 9.24862C14.4195 8.95844 14.075 8.72825 13.6959 8.5712C13.3167 8.41416 12.9104 8.33333 12.5 8.33333M15.625 11.4583H18.75M12.5 8.33333C11.6712 8.33333 10.8763 8.66257 10.2903 9.24862C9.70424 9.83467 9.375 10.6295 9.375 11.4583M12.5 8.33333V5.20833M9.375 11.4583H6.25M8.33333 7.29166L10.4167 9.37499M14.5833 13.5417L16.6667 15.625M16.6667 7.29166L14.5833 9.37499M10.4167 13.5417L8.33333 15.625M12.5 22.9167C12.5 22.9167 3.125 18.75 3.125 11.4583V5.20833L12.5 2.08333L21.875 5.20833V11.4583C21.875 18.75 12.5 22.9167 12.5 22.9167Z" stroke="#8C8C8C" stroke-width="2.08333"/>
</svg>
