<svg width="25" height="25" viewBox="0 0 25 25" fill="none" xmlns="http://www.w3.org/2000/svg">
<path d="M4.6875 17.625H1.5625V22.3125H4.6875V17.625ZM12.5 11.375H9.375V22.3125H12.5V11.375ZM20.3125 3.5625V22.3125H17.1875V3.5625H20.3125ZM17.1875 2C16.3245 2 15.625 2.69956 15.625 3.5625V22.3125C15.625 23.1755 16.3245 23.875 17.1875 23.875H20.3125C21.1755 23.875 21.875 23.1755 21.875 22.3125V3.5625C21.875 2.69956 21.1755 2 20.3125 2H17.1875ZM7.8125 11.375C7.8125 10.5121 8.51206 9.8125 9.375 9.8125H12.5C13.3629 9.8125 14.0625 10.5121 14.0625 11.375V22.3125C14.0625 23.1755 13.3629 23.875 12.5 23.875H9.375C8.51206 23.875 7.8125 23.1755 7.8125 22.3125V11.375ZM0 17.625C0 16.762 0.699562 16.0625 1.5625 16.0625H4.6875C5.55044 16.0625 6.25 16.762 6.25 17.625V22.3125C6.25 23.1755 5.55044 23.875 4.6875 23.875H1.5625C0.699562 23.875 0 23.1755 0 22.3125V17.625Z" fill="#8C8C8C"/>
</svg>
