<svg width="25" height="25" viewBox="0 0 25 25" fill="none" xmlns="http://www.w3.org/2000/svg">
<path d="M14.4532 22.9167H10.5469C10.2865 22.9167 10.0608 22.8299 9.86982 22.6562C9.67885 22.4826 9.566 22.2656 9.53127 22.0052L9.21878 19.5833C8.99308 19.4965 8.78058 19.3924 8.58128 19.2708C8.38128 19.1493 8.18579 19.0191 7.99482 18.8802L5.72919 19.8177C5.48614 19.9045 5.24308 19.9132 5.00003 19.8437C4.75697 19.7743 4.566 19.6267 4.42711 19.401L2.50003 16.0417C2.36114 15.816 2.31773 15.5729 2.36982 15.3125C2.4219 15.0521 2.55211 14.8437 2.76044 14.6875L4.71357 13.2031C4.69621 13.0816 4.68753 12.9642 4.68753 12.851V12.1479C4.68753 12.0354 4.69621 11.9184 4.71357 11.7969L2.76044 10.3125C2.55211 10.1562 2.4219 9.94791 2.36982 9.68749C2.31773 9.42708 2.36114 9.18402 2.50003 8.95833L4.42711 5.59895C4.54864 5.3559 4.7351 5.20381 4.98648 5.1427C5.23857 5.08229 5.48614 5.09548 5.72919 5.18229L7.99482 6.11979C8.18579 5.9809 8.38544 5.85069 8.59378 5.72916C8.80211 5.60763 9.01044 5.50347 9.21878 5.41666L9.53127 2.99479C9.566 2.73437 9.67885 2.51736 9.86982 2.34374C10.0608 2.17013 10.2865 2.08333 10.5469 2.08333H14.4532C14.7136 2.08333 14.9393 2.17013 15.1302 2.34374C15.3212 2.51736 15.4341 2.73437 15.4688 2.99479L15.7813 5.41666C16.007 5.50347 16.2198 5.60763 16.4198 5.72916C16.6191 5.85069 16.8143 5.9809 17.0052 6.11979L19.2709 5.18229C19.5139 5.09548 19.757 5.0868 20 5.15624C20.2431 5.22569 20.4341 5.37326 20.5729 5.59895L22.5 8.95833C22.6389 9.18402 22.6823 9.42708 22.6302 9.68749C22.5782 9.94791 22.4479 10.1562 22.2396 10.3125L20.2865 11.7969C20.3038 11.9184 20.3125 12.0354 20.3125 12.1479V12.851C20.3125 12.9642 20.2952 13.0816 20.2604 13.2031L22.2136 14.6875C22.4219 14.8437 22.5521 15.0521 22.6042 15.3125C22.6563 15.5729 22.6129 15.816 22.474 16.0417L20.5469 19.375C20.408 19.6007 20.2129 19.7528 19.9615 19.8312C19.7094 19.909 19.4618 19.9045 19.2188 19.8177L17.0052 18.8802C16.8143 19.0191 16.6146 19.1493 16.4063 19.2708C16.1979 19.3924 15.9896 19.4965 15.7813 19.5833L15.4688 22.0052C15.4341 22.2656 15.3212 22.4826 15.1302 22.6562C14.9393 22.8299 14.7136 22.9167 14.4532 22.9167ZM12.5521 16.1458C13.5591 16.1458 14.4184 15.7899 15.1302 15.0781C15.842 14.3663 16.1979 13.5069 16.1979 12.5C16.1979 11.4931 15.842 10.6337 15.1302 9.92187C14.4184 9.21006 13.5591 8.85416 12.5521 8.85416C11.5278 8.85416 10.6639 9.21006 9.96044 9.92187C9.25766 10.6337 8.90628 11.4931 8.90628 12.5C8.90628 13.5069 9.25766 14.3663 9.96044 15.0781C10.6639 15.7899 11.5278 16.1458 12.5521 16.1458ZM12.5521 14.0625C12.1181 14.0625 11.7493 13.9104 11.4459 13.6062C11.1417 13.3028 10.9896 12.934 10.9896 12.5C10.9896 12.066 11.1417 11.6972 11.4459 11.3937C11.7493 11.0896 12.1181 10.9375 12.5521 10.9375C12.9861 10.9375 13.3552 11.0896 13.6594 11.3937C13.9629 11.6972 14.1146 12.066 14.1146 12.5C14.1146 12.934 13.9629 13.3028 13.6594 13.6062C13.3552 13.9104 12.9861 14.0625 12.5521 14.0625ZM11.4584 20.8333H13.5157L13.8802 18.0729C14.4184 17.934 14.9177 17.7299 15.3781 17.4604C15.8379 17.1917 16.2587 16.8663 16.6407 16.4844L19.2188 17.5521L20.2344 15.7812L17.9948 14.0885C18.0816 13.8455 18.1424 13.5892 18.1771 13.3198C18.2118 13.051 18.2292 12.7778 18.2292 12.5C18.2292 12.2222 18.2118 11.9486 18.1771 11.6792C18.1424 11.4104 18.0816 11.1545 17.9948 10.9115L20.2344 9.21875L19.2188 7.44791L16.6407 8.54166C16.2587 8.14236 15.8379 7.80798 15.3781 7.53854C14.9177 7.26979 14.4184 7.06597 13.8802 6.92708L13.5417 4.16666H11.4844L11.1198 6.92708C10.5816 7.06597 10.0827 7.26979 9.62294 7.53854C9.16253 7.80798 8.74134 8.13368 8.3594 8.51562L5.78128 7.44791L4.76565 9.21875L7.00523 10.8854C6.91843 11.1458 6.85766 11.4062 6.82294 11.6667C6.78822 11.9271 6.77086 12.2049 6.77086 12.5C6.77086 12.7778 6.78822 13.0469 6.82294 13.3073C6.85766 13.5677 6.91843 13.8281 7.00523 14.0885L4.76565 15.7812L5.78128 17.5521L8.3594 16.4583C8.74134 16.8576 9.16253 17.1917 9.62294 17.4604C10.0827 17.7299 10.5816 17.934 11.1198 18.0729L11.4584 20.8333Z" fill="#8C8C8C"/>
</svg>
