<svg width="22" height="22" viewBox="0 0 22 22" fill="none" xmlns="http://www.w3.org/2000/svg">
<path d="M4.6875 15.625H1.5625V20.3125H4.6875V15.625ZM12.5 9.375H9.375V20.3125H12.5V9.375ZM20.3125 1.5625V20.3125H17.1875V1.5625H20.3125ZM17.1875 0C16.3245 0 15.625 0.699562 15.625 1.5625V20.3125C15.625 21.1755 16.3245 21.875 17.1875 21.875H20.3125C21.1755 21.875 21.875 21.1755 21.875 20.3125V1.5625C21.875 0.699562 21.1755 0 20.3125 0H17.1875ZM7.8125 9.375C7.8125 8.51206 8.51206 7.8125 9.375 7.8125H12.5C13.3629 7.8125 14.0625 8.51206 14.0625 9.375V20.3125C14.0625 21.1755 13.3629 21.875 12.5 21.875H9.375C8.51206 21.875 7.8125 21.1755 7.8125 20.3125V9.375ZM0 15.625C0 14.762 0.699562 14.0625 1.5625 14.0625H4.6875C5.55044 14.0625 6.25 14.762 6.25 15.625V20.3125C6.25 21.1755 5.55044 21.875 4.6875 21.875H1.5625C0.699562 21.875 0 21.1755 0 20.3125V15.625Z" fill="white"/>
</svg>
