<svg width="21" height="25" viewBox="0 0 21 25" fill="none" xmlns="http://www.w3.org/2000/svg">
<path d="M10.5 14.5833C10.9104 14.5833 11.3167 14.5025 11.6959 14.3455C12.075 14.1884 12.4195 13.9582 12.7097 13.668C12.9999 13.3779 13.2301 13.0334 13.3871 12.6542C13.5442 12.2751 13.625 11.8687 13.625 11.4583M10.5 14.5833C9.6712 14.5833 8.87634 14.2541 8.29029 13.668C7.70424 13.082 7.375 12.2871 7.375 11.4583M10.5 14.5833V17.7083M13.625 11.4583C13.625 11.0479 13.5442 10.6416 13.3871 10.2624C13.2301 9.8833 12.9999 9.5388 12.7097 9.24862C12.4195 8.95844 12.075 8.72825 11.6959 8.5712C11.3167 8.41416 10.9104 8.33333 10.5 8.33333M13.625 11.4583H16.75M10.5 8.33333C9.6712 8.33333 8.87634 8.66257 8.29029 9.24862C7.70424 9.83467 7.375 10.6295 7.375 11.4583M10.5 8.33333V5.20833M7.375 11.4583H4.25M6.33333 7.29166L8.41667 9.37499M12.5833 13.5417L14.6667 15.625M14.6667 7.29166L12.5833 9.37499M8.41667 13.5417L6.33333 15.625M10.5 22.9167C10.5 22.9167 1.125 18.75 1.125 11.4583V5.20833L10.5 2.08333L19.875 5.20833V11.4583C19.875 18.75 10.5 22.9167 10.5 22.9167Z" stroke="white" stroke-width="2.08333"/>
</svg>
