<svg width="21" height="21" viewBox="0 0 21 21" fill="none" xmlns="http://www.w3.org/2000/svg">
<path d="M12.4532 20.9167H8.5469C8.28648 20.9167 8.06079 20.8299 7.86982 20.6562C7.67885 20.4826 7.566 20.2656 7.53127 20.0052L7.21878 17.5833C6.99308 17.4965 6.78058 17.3924 6.58128 17.2708C6.38128 17.1493 6.18579 17.0191 5.99482 16.8802L3.72919 17.8177C3.48614 17.9045 3.24308 17.9132 3.00003 17.8437C2.75697 17.7743 2.566 17.6267 2.42711 17.401L0.500026 14.0417C0.361137 13.816 0.317734 13.5729 0.369818 13.3125C0.421901 13.0521 0.552109 12.8437 0.760443 12.6875L2.71357 11.2031C2.69621 11.0816 2.68753 10.9642 2.68753 10.851V10.1479C2.68753 10.0354 2.69621 9.9184 2.71357 9.79687L0.760443 8.31249C0.552109 8.15624 0.421901 7.94791 0.369818 7.68749C0.317734 7.42708 0.361137 7.18402 0.500026 6.95833L2.42711 3.59895C2.54864 3.3559 2.7351 3.20381 2.98648 3.1427C3.23857 3.08229 3.48614 3.09548 3.72919 3.18229L5.99482 4.11979C6.18579 3.9809 6.38544 3.85069 6.59378 3.72916C6.80211 3.60763 7.01044 3.50347 7.21878 3.41666L7.53127 0.994787C7.566 0.73437 7.67885 0.517356 7.86982 0.343745C8.06079 0.170134 8.28648 0.0833282 8.5469 0.0833282H12.4532C12.7136 0.0833282 12.9393 0.170134 13.1302 0.343745C13.3212 0.517356 13.4341 0.73437 13.4688 0.994787L13.7813 3.41666C14.007 3.50347 14.2198 3.60763 14.4198 3.72916C14.6191 3.85069 14.8143 3.9809 15.0052 4.11979L17.2709 3.18229C17.5139 3.09548 17.757 3.0868 18 3.15624C18.2431 3.22569 18.4341 3.37326 18.5729 3.59895L20.5 6.95833C20.6389 7.18402 20.6823 7.42708 20.6302 7.68749C20.5782 7.94791 20.4479 8.15624 20.2396 8.31249L18.2865 9.79687C18.3038 9.9184 18.3125 10.0354 18.3125 10.1479V10.851C18.3125 10.9642 18.2952 11.0816 18.2604 11.2031L20.2136 12.6875C20.4219 12.8437 20.5521 13.0521 20.6042 13.3125C20.6563 13.5729 20.6129 13.816 20.474 14.0417L18.5469 17.375C18.408 17.6007 18.2129 17.7528 17.9615 17.8312C17.7094 17.909 17.4618 17.9045 17.2188 17.8177L15.0052 16.8802C14.8143 17.0191 14.6146 17.1493 14.4063 17.2708C14.1979 17.3924 13.9896 17.4965 13.7813 17.5833L13.4688 20.0052C13.4341 20.2656 13.3212 20.4826 13.1302 20.6562C12.9393 20.8299 12.7136 20.9167 12.4532 20.9167ZM10.5521 14.1458C11.5591 14.1458 12.4184 13.7899 13.1302 13.0781C13.842 12.3663 14.1979 11.5069 14.1979 10.5C14.1979 9.49305 13.842 8.63367 13.1302 7.92187C12.4184 7.21006 11.5591 6.85416 10.5521 6.85416C9.5278 6.85416 8.66391 7.21006 7.96044 7.92187C7.25766 8.63367 6.90628 9.49305 6.90628 10.5C6.90628 11.5069 7.25766 12.3663 7.96044 13.0781C8.66391 13.7899 9.5278 14.1458 10.5521 14.1458ZM10.5521 12.0625C10.1181 12.0625 9.74933 11.9104 9.44586 11.6062C9.14169 11.3028 8.98961 10.934 8.98961 10.5C8.98961 10.066 9.14169 9.69722 9.44586 9.39374C9.74933 9.08958 10.1181 8.93749 10.5521 8.93749C10.9861 8.93749 11.3552 9.08958 11.6594 9.39374C11.9629 9.69722 12.1146 10.066 12.1146 10.5C12.1146 10.934 11.9629 11.3028 11.6594 11.6062C11.3552 11.9104 10.9861 12.0625 10.5521 12.0625ZM9.45836 18.8333H11.5157L11.8802 16.0729C12.4184 15.934 12.9177 15.7299 13.3781 15.4604C13.8379 15.1917 14.2587 14.8663 14.6407 14.4844L17.2188 15.5521L18.2344 13.7812L15.9948 12.0885C16.0816 11.8455 16.1424 11.5892 16.1771 11.3198C16.2118 11.051 16.2292 10.7778 16.2292 10.5C16.2292 10.2222 16.2118 9.94861 16.1771 9.67916C16.1424 9.41041 16.0816 9.15451 15.9948 8.91145L18.2344 7.21875L17.2188 5.44791L14.6407 6.54166C14.2587 6.14236 13.8379 5.80798 13.3781 5.53854C12.9177 5.26979 12.4184 5.06597 11.8802 4.92708L11.5417 2.16666H9.4844L9.11982 4.92708C8.58162 5.06597 8.08266 5.26979 7.62294 5.53854C7.16253 5.80798 6.74134 6.13368 6.3594 6.51562L3.78128 5.44791L2.76565 7.21875L5.00523 8.88541C4.91843 9.14583 4.85766 9.40624 4.82294 9.66666C4.78822 9.92708 4.77086 10.2049 4.77086 10.5C4.77086 10.7778 4.78822 11.0469 4.82294 11.3073C4.85766 11.5677 4.91843 11.8281 5.00523 12.0885L2.76565 13.7812L3.78128 15.5521L6.3594 14.4583C6.74134 14.8576 7.16253 15.1917 7.62294 15.4604C8.08266 15.7299 8.58162 15.934 9.11982 16.0729L9.45836 18.8333Z" fill="white"/>
</svg>
